<svg width="19" height="19" viewBox="0 0 19 19" fill="none" xmlns="http://www.w3.org/2000/svg">
<path fill-rule="evenodd" clip-rule="evenodd" d="M17.9716 1.02838C17.6421 0.698874 17.1079 0.698874 16.7784 1.02838L9.5 8.30676L2.22162 1.02838C1.89212 0.698874 1.35788 0.698874 1.02838 1.02838C0.698874 1.35788 0.698874 1.89212 1.02838 2.22162L8.30676 9.5L1.02838 16.7784C0.698874 17.1079 0.698874 17.6421 1.02838 17.9716C1.35788 18.3011 1.89212 18.3011 2.22162 17.9716L9.5 10.6932L16.7784 17.9716C17.1079 18.3011 17.6421 18.3011 17.9716 17.9716C18.3011 17.6421 18.3011 17.1079 17.9716 16.7784L10.6932 9.5L17.9716 2.22162C18.3011 1.89212 18.3011 1.35788 17.9716 1.02838Z" fill="#676C78"/>
</svg>
